<svg xmlns="http://www.w3.org/2000/svg" xmlns:xlink="http://www.w3.org/1999/xlink" xml:space="preserve" version="1.1" style="shape-rendering:geometricPrecision;text-rendering:geometricPrecision;image-rendering:optimizeQuality;" viewBox="0 0 50800 50800" x="0px" y="0px" fill-rule="evenodd" clip-rule="evenodd"><defs><style type="text/css">
   
    .fil0 {fill:#64D894}
   
  </style></defs><g><path class="fil0" d="M15701 29633c39,-1669 178,-3492 266,-4842l161 -3114c-320,113 -639,226 -1275,357 -635,130 -1587,281 -2604,489 -1018,209 -2100,480 -3176,561 -1075,80 -2141,-28 -2880,-90 -738,-62 -1147,-80 -1521,-157 -375,-79 -717,-219 -1057,-361 -83,501 -167,1002 -234,1819 -65,816 -112,1950 -128,3052 -13,1103 5,2173 143,3378 140,1203 398,2537 684,3999 284,1462 597,3051 948,4452 351,1402 741,2615 1101,3796l1020 3479c449,-171 897,-341 1407,-477 511,-137 1082,-238 1747,-306 664,-66 1422,-97 2366,-58 943,40 2073,150 3014,252 942,103 1694,198 2291,223 599,25 1043,-20 1170,-94 130,-72 -56,-175 -177,-258l-243 -232 -209 -292 -328 -408c-119,-162 -238,-357 -381,-708 -142,-354 -311,-865 -553,-1852 -241,-988 -560,-2450 -816,-3848 -256,-1397 -453,-2729 -581,-4152 -131,-1424 -194,-2939 -155,-4608z"/><path class="fil0" d="M17666 27099c-61,1448 -69,3149 18,4854 86,1706 267,3416 544,5065 278,1650 651,3243 952,4359 301,1115 525,1755 752,2394 1013,-148 2029,-293 3010,-378 979,-84 1926,-108 2964,-64 1038,43 2168,154 3263,357 1096,203 2153,499 3120,729 969,228 1845,392 2879,530 1033,138 2225,251 3457,207 1231,-42 2500,-240 3295,-397 795,-157 1114,-268 1444,-632 330,-366 672,-981 854,-1572 183,-593 206,-1157 98,-1603 -106,-446 -346,-772 -584,-1097 509,-106 1017,-209 1467,-411 449,-201 841,-501 1140,-867 298,-366 506,-797 622,-1328 118,-532 144,-1161 69,-1637 -75,-475 -251,-798 -459,-1090 -209,-293 -449,-554 -692,-817 454,-296 908,-593 1300,-892 391,-298 718,-599 956,-1000 236,-400 383,-896 433,-1336 51,-439 3,-820 -108,-1170 -112,-352 -286,-674 -588,-1034 -300,-360 -725,-756 -998,-987 -275,-233 -397,-301 -520,-369 393,-362 786,-723 1117,-1088 331,-363 597,-730 743,-1198 147,-466 170,-1032 126,-1507 -43,-475 -153,-858 -328,-1179 -176,-324 -417,-585 -720,-849 -305,-266 -672,-533 -1012,-705 -338,-172 -651,-250 -1309,-338 -659,-91 -1662,-197 -2860,-216 -1196,-17 -2585,51 -3500,75 -916,24 -1356,6 -1796,-12 337,-554 677,-1106 1177,-1780 502,-671 1165,-1462 1702,-2261 538,-797 949,-1598 1238,-2469 288,-870 455,-1809 519,-2593 65,-786 28,-1418 -100,-2116 -130,-700 -349,-1464 -639,-2075 -290,-611 -650,-1067 -1012,-1430 -363,-362 -729,-629 -1164,-773 -436,-145 -939,-166 -1413,-153 -473,11 -916,55 -1300,197 -384,141 -710,380 -940,622 -232,243 -367,489 -414,834 -45,346 -1,789 -58,1385 -56,596 -213,1345 -429,1967 -214,620 -488,1113 -890,1695 -403,584 -935,1254 -1755,2038 -821,786 -1931,1685 -2912,2526 -980,842 -1833,1625 -2458,2262 -625,635 -1024,1122 -1460,1734 -434,614 -906,1350 -1371,1929 -465,579 -924,1001 -1502,1260 -580,260 -1277,357 -1910,424l-1771 148c-114,1192 -227,2384 -287,3832z"/></g></svg>